PathFileType	3	(X/Y/Z)	D:\minhoCalibration\240510\subject5_KPNP\preferred\preferred03.trc
DataRate	CameraRate	NumFrames	NumMarkers	Units	OrigDataRate	OrigDataStartFrame	OrigNumFrames
200.0	200.0	15	10	mm	200.0	374	191	
Frame#	Time	Left_Ankle_Outer1			Left_Ankle_Inner1			Left_Knee_Outer1			Left_Knee_Inner1			Left_Wrist1			Right_Wrist1			Right_Knee_Inner1			Right_Knee_Outer1			Right_Ankle_Inner1			Right_Ankle_Outer1			
		X1	Y1	Z1	X2	Y2	Z2	X3	Y3	Z3	X4	Y4	Z4	X5	Y5	Z5	X6	Y6	Z6	X7	Y7	Z7	X8	Y8	Z8	X9	Y9	Z9	X10	Y10	Z10	
374	1.86	-580.82904	83.606697	-595.23517	-608.14752	93.612915	-550.67792	-402.68759	526.37549	-546.51544	-449.2012	511.66391	-465.99899	-427.66293	975.99799	-670.90381	-580.80322	1177.4385	-459.97534	-491.65405	914.63269	-32.444855	-542.84723	987.42249	-32.232117	-544.93976	688.36572	343.14459	-634.79016	724.19086	343.6232
375	1.865	-581.00812	83.548721	-595.01819	-608.95331	93.839577	-549.48602	-403.45895	526.3385	-546.54529	-450.26947	511.73264	-466.28766	-425.81607	976.76434	-670.41394	-582.58978	1176.5646	-460.61426	-493.70251	908.22821	-35.062511	-545.79382	980.45483	-34.16893	-551.74707	673.73682	335.09381	-641.4093	710.00012	335.91425
376	1.87	-581.21997	83.530388	-594.91718	-608.31555	93.484962	-550.28595	-404.14413	526.3739	-546.80737	-451.33401	511.81949	-466.76138	-423.93909	977.4635	-669.8244	-584.45447	1176.004	-460.89752	-496.32486	901.46466	-37.711563	-549.22473	973.06433	-35.981499	-558.63104	658.68347	326.85043	-648.00708	695.98401	328.14911
377	1.875	-581.33337	83.499481	-594.91595	-609.18207	93.60611	-549.38495	-404.84171	526.48682	-547.29456	-452.3475	512.2829	-467.46997	-422.25543	978.08276	-669.17853	-586.38171	1175.3165	-461.23447	-499.12006	894.2851	-40.540569	-552.9632	965.47272	-37.725368	-565.53192	643.64026	318.21869	-654.52045	681.76904	320.08508
378	1.88	-581.42767	83.420792	-594.8446	-609.12305	93.568428	-549.30731	-405.6185	526.57104	-547.99561	-453.34601	512.34625	-468.12643	-420.54343	978.69452	-668.56934	-588.05762	1174.676	-461.93756	-501.96576	886.81	-43.506165	-556.06665	957.349	-40.264927	-572.3241	628.89105	309.09659	-660.52094	667.56903	311.58557
379	1.885	-581.3559	83.362244	-594.9809	-609.13806	93.619011	-549.20898	-406.34921	526.77563	-548.69312	-454.64816	512.41211	-468.96854	-419.10895	979.10083	-667.96729	-589.49677	1173.7228	-463.02505	-505.41144	879.11383	-46.610989	-559.72491	949.19788	-42.555817	-578.71631	613.76984	299.39691	-666.98187	653.29254	303.2327
380	1.89	-581.3111	83.305199	-595.10236	-608.78333	93.195694	-550.6875	-407.05118	526.99554	-549.57629	-455.41672	512.80078	-469.76871	-417.90195	979.36786	-667.47089	-591.07843	1173.3948	-463.556	-508.27795	871.27155	-49.901237	-563.66522	940.83685	-44.751663	-585.78198	598.25067	289.71661	-672.84399	639.28882	294.37479
381	1.895	-581.19006	83.377579	-595.29047	-608.52283	93.255936	-550.71265	-407.64584	527.22461	-550.45813	-456.23648	513.10944	-470.71283	-416.47116	979.46735	-666.90326	-592.39594	1172.0118	-465.2355	-511.51407	863.31659	-53.457321	-567.31958	932.44	-47.373753	-592.34827	583.33362	280.17877	-679.06036	624.80273	285.06595
382	1.9	-581.10724	83.370895	-595.46259	-609.07971	93.606796	-549.82306	-408.39563	527.43036	-551.24353	-457.04312	513.36292	-471.54852	-414.5004	979.88678	-666.00714	-594.65192	1171.4882	-464.82877	-515.18964	855.29187	-57.075981	-571.06879	924.14862	-50.14492	-597.68329	569.01929	269.45447	-684.91022	610.32599	275.31708
383	1.905	-580.92499	83.292168	-595.57306	-609.1861	93.408989	-550.21771	-409.00824	527.63007	-552.11261	-457.86551	513.66168	-472.40814	-411.53503	983.17773	-664.966	-596.53412	1170.8447	-464.84454	-518.18469	847.27545	-61.008373	-575.0451	915.93121	-52.869675	-603.57208	554.33466	258.77423	-690.48206	595.55457	264.83212
384	1.91	-580.89673	83.193794	-595.71198	-609.07642	93.527779	-550.33691	-409.63733	527.76221	-552.80774	-458.70972	513.9248	-473.22556	-409.44736	983.64874	-664.28162	-597.78168	1169.3716	-466.06186	-521.4538	839.29279	-64.985146	-578.41571	907.63043	-56.187698	-609.2149	539.66071	247.63165	-696.26239	580.33777	253.83205
385	1.915	-580.78918	83.156525	-595.85107	-609.18866	93.356583	-550.73413	-410.01917	527.94208	-553.5271	-459.43005	514.15021	-474.07492	-408.24753	984.54657	-664.02051	-600.07013	1168.6265	-464.67993	-524.78088	831.48682	-69.103363	-582.12451	899.48798	-59.39431	-614.65546	525.17017	236.26996	-701.93445	565.8847	243.07693
386	1.92	-580.80792	82.868835	-595.95538	-608.89246	93.822922	-550.26294	-410.38055	527.92932	-554.19824	-460.16083	514.36072	-474.91138	-407.14688	985.42596	-663.86896	-600.79108	1165.5996	-469.70309	-528.03882	823.83582	-73.567696	-585.63641	891.4389	-62.750721	-620.51514	510.16687	224.85434	-707.2121	550.71771	230.87671
387	1.925	-580.74017	82.631897	-595.99646	-609.28021	92.858765	-551.40314	-410.67361	527.84644	-554.91754	-460.80347	514.54913	-475.68549	-406.0509	986.30597	-663.75507	-602.79504	1165.6694	-466.82794	-531.36072	816.18787	-77.494484	-589.32794	883.60193	-66.131813	-625.38452	495.93668	212.41405	-712.73853	535.70459	218.44923
388	1.93	-580.80322	82.472382	-596.06067	-609.21301	92.894051	-551.0705	-410.95148	527.63708	-555.63727	-461.40628	514.54712	-476.61862	-404.81393	987.15887	-663.70026	-603.9931	1162.5294	-470.97351	-534.45441	808.78851	-81.722885	-592.96423	875.73462	-69.759033	-630.85486	481.73929	200.88475	-718.05182	520.80652	205.54852
